<svg xmlns="http://www.w3.org/2000/svg" viewBox="0 0 360 320" fill="#E5251C" aria-label="Quorum1 mountain motif">
  <path d="M 168.1 14.0 L 165.5 15.3 L 163.5 16.6 L 161.5 18.0 L 159.5 19.3 L 158.2 20.6 L 156.2 21.9 L 154.3 23.2 L 151.6 24.6 L 149.0 25.9 L 146.3 27.2 L 142.4 28.5 L 137.1 29.8 L 109.4 42.7 L 235.4 42.7 L 202.4 29.8 L 199.8 28.5 L 197.2 27.2 L 195.2 25.9 L 193.2 24.6 L 191.2 23.2 L 189.2 21.9 L 186.6 20.6 L 184.0 19.3 L 182.0 18.0 L 180.0 16.6 L 177.4 15.3 L 174.1 14.0 Z"></path>
  <path d="M 106.7 47.0 L 102.1 48.3 L 97.5 49.6 L 93.5 51.0 L 90.9 52.3 L 88.3 53.6 L 86.3 54.9 L 84.3 56.2 L 83.0 57.6 L 81.0 58.9 L 79.7 60.2 L 78.4 61.5 L 76.4 62.8 L 44.0 85.6 L 299.5 85.6 L 268.4 62.8 L 267.1 61.5 L 265.8 60.2 L 264.5 58.9 L 263.2 57.6 L 261.2 56.2 L 258.5 54.9 L 254.6 53.6 L 250.6 52.3 L 248.0 51.0 L 244.7 49.6 L 241.4 48.3 L 238.7 47.0 Z"></path>
  <path d="M 44.0 89.2 L 40.1 91.2 L 36.1 93.2 L 36.1 95.2 L 36.1 97.2 L 36.1 99.1 L 36.1 101.1 L 36.1 103.1 L 36.1 105.1 L 36.1 137.8 L 323.9 137.8 L 319.9 105.1 L 318.6 103.1 L 316.0 101.1 L 311.3 99.1 L 308.0 97.2 L 306.1 95.2 L 304.1 93.2 L 302.8 91.2 L 300.8 89.2 Z"></path>
  <path d="M 36.1 141.4 L 36.1 146.7 L 36.1 151.9 L 36.1 157.2 L 36.1 189.2 L 323.9 189.2 L 323.9 157.2 L 323.9 151.9 L 323.9 146.7 L 323.9 141.4 Z"></path>
  <path d="M 37.4 196.2 L 41.4 200.1 L 37.4 203.1 L 323.9 203.1 L 316.0 200.1 L 323.9 196.2 Z"></path>
  <path d="M 50.0 215.3 L 62.5 219.3 L 50.0 222.9 L 296.2 222.9 L 291.5 219.3 L 296.2 215.3 Z"></path>
  <path d="M 94.2 232.5 L 99.5 236.4 L 94.2 240.1 L 297.5 240.1 L 292.9 236.4 L 297.5 232.5 Z"></path>
  <path d="M 110.0 250.3 L 114.0 252.9 L 110.0 255.2 L 252.6 255.2 L 244.7 252.9 L 252.6 250.3 Z"></path>
  <path d="M 147.0 267.4 L 155.6 271.4 L 147.0 275.0 L 228.8 275.0 L 216.3 271.4 L 228.8 267.4 Z"></path>
  <path d="M 165.5 287.9 L 170.1 290.5 L 176.0 293.2 L 165.5 293.5 L 189.2 293.5 L 180.0 293.2 L 185.3 290.5 L 189.2 287.9 Z"></path>
</svg>